# xmcd CD database file
#
# Track frame offsets:
#	150
#	18612
#	33392
#	53037
#	73042
#	99105
#	120937
#	144035
#	179330
#
# Disc length: 2694 seconds
#
# Revision: 0
# Processed by: cddbd v1.4PL0 Copyright (c) Steve Scherf et al.
# Submitted via: CDex 1.50
#
DISCID=6a0a8409
DTITLE=Zoot Sims - Zoot Sims In Paris
DYEAR=1961
DGENRE=Jazz
TTITLE0=Zoot's Blues
TTITLE1=Spring Can Really Hang You Up The Most
TTITLE2=Once In A While
TTITLE3=These Foolish Things
TTITLE4=On The Alamo
TTITLE5=Too Close For Comfort
TTITLE6=A Flat Blues
TTITLE7=You Go To My Head
TTITLE8=(Stomping At The)Savoy
EXTD=YEAR: 1961
EXTT0=
EXTT1=
EXTT2=
EXTT3=
EXTT4=
EXTT5=
EXTT6=
EXTT7=
EXTT8=
PLAYORDER=
